<svg height="496pt" viewBox="-80 0 496 496" width="496pt" xmlns="http://www.w3.org/2000/svg"><path d="m336 168c0-92.632812-75.359375-168-168-168s-168 75.367188-168 168c0 69.976562 43.03125 130.039062 104 155.265625v36.734375c0 4.425781 3.585938 8 8 8h8v16h-16v16h16v16h-16v16h16v64h16v-64h64v64h16v-64h16v-16h-16v-16h16v-16h-16v-16h8c4.414062 0 8-3.574219 8-8v-36.734375c60.96875-25.226563 104-85.289063 104-155.265625zm-136 248h-64v-16h64zm0-32h-64v-16h64zm16-32h-96v-23.070312c15.222656 4.542968 31.3125 7.070312 48 7.070312s32.777344-2.527344 48-7.070312zm-48-32c-83.816406 0-152-68.183594-152-152s68.183594-152 152-152 152 68.183594 152 152-68.183594 152-152 152zm0 0"/><path d="m168 32c-74.992188 0-136 61.007812-136 136 0 4.425781 3.585938 8 8 8h40v-16h-31.734375c1.789063-27.078125 12.621094-51.710938 29.46875-70.945312l20.601563 20.601562 11.3125-11.3125-20.542969-20.542969c19.238281-16.839843 43.832031-27.617187 70.894531-29.410156v31.609375h16v-31.609375c27.0625 1.800781 51.65625 12.578125 70.886719 29.417969l-20.542969 20.542968 11.3125 11.3125 20.601562-20.601562c16.847657 19.242188 27.679688 43.875 29.46875 70.945312h-31.726562v16h40c4.414062 0 8-3.574218 8-8 0-75-61.007812-136.007812-136-136.007812zm0 0"/><path d="m176 241.136719v-73.136719h-16v73.136719c-13.761719 3.574219-24 15.992187-24 30.863281 0 17.648438 14.351562 32 32 32s32-14.351562 32-32c0-14.871094-10.238281-27.289062-24-30.863281zm-8 46.863281c-8.824219 0-16-7.175781-16-16s7.175781-16 16-16 16 7.175781 16 16-7.175781 16-16 16zm0 0"/></svg>